<svg width="28" height="28" viewBox="0 0 28 28" fill="none" xmlns="http://www.w3.org/2000/svg">
<path d="M5.02276 15.248L7.39224 13.5655C8.06063 13.0909 8.73831 12.7728 9.51145 12.5669C10.3991 12.3304 10.797 11.8461 10.797 10.8108C10.797 8.18464 16.8629 7.9052 16.8629 10.8108C16.8629 11.8461 17.2608 12.3304 18.1485 12.5669C18.9277 12.7743 19.6045 13.0945 20.2676 13.5655L22.6371 15.248C23.7093 16.0094 24.2083 16.3775 24.4867 16.9627C24.7485 17.5134 24.7485 18.159 24.7485 19.4503C24.7485 21.772 24.7485 22.9328 24.0985 23.677C23.3111 24.5783 21.2643 24.5009 20.007 24.5009H7.65286C6.39557 24.5009 4.39034 24.626 3.56139 23.677C2.91138 22.9328 2.91138 21.772 2.91138 19.4503C2.91138 18.159 2.91138 17.5134 3.17323 16.9627C3.45155 16.3775 3.9506 16.0094 5.02276 15.248Z" stroke="white" stroke-width="2.18371"/>
<path d="M16.2561 18.4405C16.2561 19.7805 15.1699 20.8668 13.8298 20.8668C12.4897 20.8668 11.4034 19.7805 11.4034 18.4405C11.4034 17.1004 12.4897 16.0141 13.8298 16.0141C15.1699 16.0141 16.2561 17.1004 16.2561 18.4405Z" stroke="white" stroke-width="2.18371"/>
<path d="M7.71587 2.30249C6.11638 2.75917 4.96646 3.32568 3.91417 4.00922C2.24815 5.09143 1.5339 7.04153 1.72999 8.92327C1.81288 9.71857 2.45131 10.0988 3.19165 9.89311C3.7541 9.7368 4.31746 9.58466 4.87641 9.41886C6.5111 8.934 6.89559 8.34458 7.12275 6.67128L7.71587 2.30249ZM7.71587 2.30249C11.669 1.17389 15.9912 1.17389 19.9444 2.30249M19.9444 2.30249C21.5438 2.75917 22.6938 3.32568 23.746 4.00922C25.412 5.09143 26.1263 7.04153 25.9302 8.92327C25.8473 9.71857 25.2089 10.0988 24.4685 9.89311C23.9061 9.7368 23.3427 9.58466 22.7838 9.41886C21.149 8.934 20.7646 8.34458 20.5375 6.67128L19.9444 2.30249Z" stroke="white" stroke-width="2.18371" stroke-linejoin="round"/>
</svg>
